<svg width="25" height="25" viewBox="0 0 25 25" fill="none" xmlns="http://www.w3.org/2000/svg">
<path d="M12.5008 0.000781289C5.59488 0.000781289 0 5.60035 0 12.5016C0 18.0277 3.58147 22.7116 8.54507 24.364C9.17245 24.482 9.39903 24.0953 9.39903 23.7609C9.39903 23.464 9.39199 22.6788 9.38731 21.6365C5.90818 22.3897 5.17532 19.9559 5.17532 19.9559C4.60576 18.5152 3.78383 18.1285 3.78383 18.1285C2.65251 17.3558 3.87368 17.3722 3.87368 17.3722C5.12688 17.4573 5.7863 18.6574 5.7863 18.6574C6.90121 20.57 8.71148 20.0169 9.42793 19.695C9.53732 18.8895 9.86312 18.3355 10.2178 18.0269C7.44265 17.7136 4.5245 16.6393 4.5245 11.8492C4.5245 10.4811 5.00891 9.36699 5.80974 8.49194C5.67145 8.17864 5.24798 6.90512 5.9199 5.18314C5.9199 5.18314 6.96606 4.84952 9.35762 6.46525C10.3585 6.18789 11.421 6.0496 12.4828 6.04256C13.5454 6.0496 14.6072 6.18867 15.608 6.46525C17.9855 4.84952 19.0309 5.18314 19.0309 5.18314C19.702 6.90512 19.2785 8.17785 19.1567 8.49194C19.9497 9.36699 20.4341 10.4819 20.4341 11.8492C20.4341 16.6503 17.512 17.7089 14.7337 18.0144C15.1681 18.3886 15.5752 19.1582 15.5752 20.3263C15.5752 21.9982 15.5596 23.3452 15.5596 23.7523C15.5596 24.0773 15.7783 24.4679 16.4221 24.3421C21.4224 22.7069 25 18.0191 25 12.5008C25 5.59957 19.4051 0 12.4992 0L12.5008 0.000781289Z" fill="#964862"/>
</svg>
