<svg width="25" height="25" viewBox="0 0 25 25" fill="none" xmlns="http://www.w3.org/2000/svg">
<path d="M5.59663 25.0009H0.413408V8.30923H5.59663V25.0009ZM3.00189 6.03236C1.34469 6.03236 0 4.65909 0 3.00189C0 1.34469 1.3438 0 3.00189 0C4.65999 0 6.00379 1.3438 6.00379 3.00189C6.00379 4.65909 4.65909 6.03236 3.00189 6.03236ZM24.9955 25.0009H19.8239V16.8756C19.8239 14.9389 19.7846 12.4558 17.1292 12.4558C14.4344 12.4558 14.021 14.5594 14.021 16.7363V25.0009H8.84317V8.30923H13.8139V10.5861H13.8862C14.5782 9.27444 16.2684 7.89046 18.79 7.89046C24.0357 7.89046 25 11.345 25 15.8318V25.0009H24.9955Z" fill="#898687"/>
</svg>
