<svg width="287" height="285" viewBox="0 0 287 285" fill="none" xmlns="http://www.w3.org/2000/svg">
<ellipse cx="141.918" cy="146.041" rx="97.8202" ry="97.4381" transform="rotate(-9.27292 141.918 146.041)" fill="#D7D7D7"/>
<path d="M57.1747 108.383L39.5809 90.7359L50.3171 73.4962L75.7918 82.5007L57.1747 108.383Z" fill="#D7D7D7"/>
<path d="M78.4613 76.6704L70.7808 53.7093L87.353 43.0623L105.496 61.7399L78.4613 76.6704Z" fill="#D7D7D7"/>
<path d="M111.953 56.1302L113.362 31.9597L132.705 28.2392L142.601 52.3243L111.953 56.1302Z" fill="#D7D7D7"/>
<path d="M150.625 50.4443L162.129 29.1402L181.229 33.9533L180.005 59.9633L150.625 50.4443Z" fill="#D7D7D7"/>
<path d="M188.057 61.4004L207.263 46.8754L222.881 58.6052L211.224 81.3298L188.057 61.4004Z" fill="#D7D7D7"/>
<path d="M217.403 87.1859L240.809 81.5271L250.452 98.513L230.698 114.702L217.403 87.1859Z" fill="#D7D7D7"/>
<path d="M235.233 121.118L258.769 126.203L260.064 145.693L235.235 151.677L235.233 121.118Z" fill="#D7D7D7"/>
<path d="M234.399 160.1L254.224 173.768L247.998 192.281L222.761 188.357L234.399 160.1Z" fill="#D7D7D7"/>
<path d="M219.702 196.588L232.486 216.994L219.431 231.523L197.817 217.917L219.702 196.588Z" fill="#D7D7D7"/>
<path d="M191.534 223.351L195.084 247.168L177.307 255.259L162.942 234.141L191.534 223.351Z" fill="#D7D7D7"/>
<path d="M155.622 236.538L148.605 259.573L129.075 259.25L125.167 234.011L155.622 236.538Z" fill="#D7D7D7"/>
<path d="M116.487 232.907L101.298 251.591L83.3336 243.922L89.2378 219.074L116.487 232.907Z" fill="#D7D7D7"/>
<path d="M82.2766 214.71L60.3127 224.581L47.7074 209.66L64.1436 190.112L82.2766 214.71Z" fill="#D7D7D7"/>
<path d="M58.7139 183.428L34.6372 183.822L28.9493 165.136L51.77 153.668L58.7139 183.428Z" fill="#D7D7D7"/>
<path d="M48.6922 146.091L26.4918 136.764L28.8027 117.369L54.3089 116.052L48.6922 146.091Z" fill="#D7D7D7"/>
<circle cx="143.348" cy="142.522" r="64.5" transform="rotate(-9.27292 143.348 142.522)" fill="#D9D9D9" stroke="black"/>
<circle cx="143.348" cy="142.522" r="25" transform="rotate(-9.27292 143.348 142.522)" fill="#705353"/>
</svg>
