<svg width="517" height="237" viewBox="0 0 517 237" fill="none" xmlns="http://www.w3.org/2000/svg">
<circle cx="495" cy="100" r="14.5" stroke="#2467A2"/>
<circle cx="504.5" cy="89.75" r="2.5" fill="#2467A2"/>
<circle cx="426" cy="95" r="24" stroke="#2467A2" stroke-width="2"/>
<circle cx="441.833" cy="77.9167" r="4.16667" fill="#2467A2"/>
<circle cx="381" cy="187" r="39" stroke="#2467A2" stroke-width="2"/>
<circle cx="406.333" cy="159.667" r="6.66667" fill="#2467A2"/>
<circle cx="296" cy="70" r="57.5" stroke="#2467A2" stroke-width="5"/>
<circle cx="334" cy="29" r="10" fill="#2467A2"/>
<circle cx="296" cy="70" r="69.5" stroke="white"/>
<circle cx="381" cy="187" r="49.5" stroke="white"/>
<circle cx="425.5" cy="94.5" r="32" stroke="white"/>
<circle cx="494.5" cy="99.5" r="22" stroke="white"/>
<line x1="335.382" y1="127.678" x2="351.382" y2="146.678" stroke="white"/>
<line x1="407.502" y1="144.957" x2="409.502" y2="121.957" stroke="white"/>
<line x1="458.033" y1="93.5011" x2="473.033" y2="94.5011" stroke="white"/>
<line x1="230" y1="19.5" x2="126" y2="19.5" stroke="white" stroke-opacity="0.97"/>
<path d="M126.336 19.37L82.5 59" stroke="white" stroke-opacity="0.97"/>
<path d="M0.633749 61.6596C0.44576 61.8619 0.457334 62.1783 0.659602 62.3662L3.95579 65.4298C4.15806 65.6178 4.47443 65.6062 4.66243 65.4039C4.85042 65.2016 4.83884 64.8853 4.63658 64.6973L1.70663 61.9741L4.42976 59.0442C4.61775 58.8419 4.60617 58.5256 4.4039 58.3376C4.20163 58.1496 3.88526 58.1611 3.69727 58.3634L0.633749 61.6596ZM82.9817 58.5003L0.981712 61.5003L1.01827 62.4997L83.0183 59.4997L82.9817 58.5003Z" fill="white" fill-opacity="0.97"/>
</svg>
