<svg width="270" height="268" viewBox="0 0 270 268" fill="none" xmlns="http://www.w3.org/2000/svg">
<ellipse cx="132.864" cy="137.422" rx="105.646" ry="105.233" fill="#343B47"/>
<path d="M49.0906 82.5358L33.4088 60.6638L47.8526 44.1566L73.4387 58.1877L49.0906 82.5358Z" fill="#343B47"/>
<path d="M77.2986 52.4379L73.108 26.6273L92.6249 18.1628L108.713 41.2285L77.2986 52.4379Z" fill="#343B47"/>
<path d="M116.572 36.3729L122.28 10.8551L143.545 10.2557L149.901 37.6499L116.572 36.3729Z" fill="#343B47"/>
<path d="M158.781 37.0424L174.75 16.3365L194.271 24.7908L188.44 52.3014L158.781 37.0424Z" fill="#343B47"/>
<path d="M196.772 55.2345L219.771 43.0949L234.377 58.3155L217.997 80.5087L196.772 55.2345Z" fill="#343B47"/>
<path d="M223.565 87.826L249.498 85.8676L256.82 105.651L232.947 119.469L223.565 87.826Z" fill="#343B47"/>
<path d="M236.664 127.096L260.867 136.613L258.855 157.612L231.348 159.67L236.664 127.096Z" fill="#343B47"/>
<path d="M228.992 168.502L247.744 186.521L237.885 205.17L211.669 196.595L228.992 168.502Z" fill="#343B47"/>
<path d="M206.976 204.836L217.051 228.812L200.608 242.026L179.937 223.762L206.976 204.836Z" fill="#343B47"/>
<path d="M172.294 228.461L171.934 254.465L151.577 259.995L139.941 234.986L172.294 228.461Z" fill="#343B47"/>
<path d="M131.721 236.267L120.234 259.599L99.4734 255.855L99.6997 228.273L131.721 236.267Z" fill="#343B47"/>
<path d="M90.6407 225.585L71.1983 242.857L53.3854 231.557L64.003 206.099L90.6407 225.585Z" fill="#343B47"/>
<path d="M57.3425 200.236L32.2137 206.935L21.3745 188.838L42.2956 170.862L57.3425 200.236Z" fill="#343B47"/>
<path d="M37.6713 162.793L11.9397 159.023L9.12893 138.116L35.449 129.863L37.6713 162.793Z" fill="#343B47"/>
<path d="M33.487 121.252L11.447 107.447L17.2855 87.1762L44.7015 90.211L33.487 121.252Z" fill="#343B47"/>
<circle cx="135" cy="134" r="64.5" stroke="white"/>
<circle cx="135" cy="134" r="45" fill="white"/>
</svg>
