<svg width="422" height="420" viewBox="0 0 422 420" fill="none" xmlns="http://www.w3.org/2000/svg">
<ellipse cx="206.618" cy="213.3" rx="128" ry="127.5" transform="rotate(20.8101 206.618 213.3)" fill="#705353"/>
<path d="M135.365 115.078L127.02 83.5568L150.483 71.0788L173.421 97.9832L135.365 115.078Z" fill="#705353"/>
<path d="M180.268 93.1327L186.632 62.097L212.38 60.9115L220.671 93.9595L180.268 93.1327Z" fill="#705353"/>
<path d="M231.662 91.8432L249.111 65.4001L273.453 73.8747L268.86 107.636L231.662 91.8432Z" fill="#705353"/>
<path d="M279.178 110.77L306.177 94.1935L324.647 112.171L306.2 140.819L279.178 110.77Z" fill="#705353"/>
<path d="M314.375 147.727L345.648 143.878L355.638 167.403L327.534 185.488L314.375 147.727Z" fill="#705353"/>
<path d="M330.69 196.172L360.903 205.116L360.681 230.674L327.696 236.047L330.69 196.172Z" fill="#705353"/>
<path d="M328.622 246.286L351.936 267.482L340.619 290.398L308.58 280.889L328.622 246.286Z" fill="#705353"/>
<path d="M302.11 289.878L315.592 318.357L296.398 335.234L270.398 314.238L302.11 289.878Z" fill="#705353"/>
<path d="M261.535 321.551L262.626 353.042L238.315 360.93L222.766 331.347L261.535 321.551Z" fill="#705353"/>
<path d="M212.087 333.379L200.486 362.674L175.05 360.176L172.637 326.843L212.087 333.379Z" fill="#705353"/>
<path d="M162.776 324.755L139.723 346.235L117.822 333.059L129.951 301.918L162.776 324.755Z" fill="#705353"/>
<path d="M120.848 294.975L91.3938 306.168L76.0838 285.702L99.0671 261.44L120.848 294.975Z" fill="#705353"/>
<path d="M94.0474 251.933L62.7042 248.703L58.218 223.541L89.6502 212.187L94.0474 251.933Z" fill="#705353"/>
<path d="M87.8861 201.058L60.3666 185.712L66.1825 160.824L99.5435 162.807L87.8861 201.058Z" fill="#705353"/>
<path d="M101.028 152.21L82.009 127.088L97.3469 106.643L127.091 121.882L101.028 152.21Z" fill="#705353"/>
</svg>
