<svg width="708" height="708" viewBox="0 0 708 708" fill="none" xmlns="http://www.w3.org/2000/svg">
<path fill-rule="evenodd" clip-rule="evenodd" d="M601.107 107.107H107.107V601.107H601.107V107.107ZM107.107 104.107H104.107V107.107V601.107V604.107H107.107H601.107H604.107V601.107V107.107V104.107H601.107H107.107ZM668.576 202.032L202.032 39.6367L39.6365 506.181L506.181 668.577L668.576 202.032ZM203.018 36.8034L200.185 35.8172L199.199 38.6505L36.8032 505.195L35.817 508.028L38.6503 509.014L505.195 671.41L508.028 672.396L509.014 669.563L671.41 203.018L672.396 200.185L669.563 199.199L203.018 36.8034ZM703.417 353.857L353.857 4.79598L4.79586 354.356L354.356 703.417L703.417 353.857ZM355.977 2.67315L353.854 0.553345L351.734 2.67618L2.67303 352.236L0.553225 354.359L2.67606 356.479L352.236 705.54L354.359 707.66L356.479 705.537L705.54 355.977L707.66 353.854L705.537 351.734L355.977 2.67315ZM674.25 493.842L493.842 33.9628L33.9627 214.371L214.371 674.25L674.25 493.842ZM496.634 32.8672L495.539 30.0744L492.746 31.17L32.8671 211.579L30.0743 212.674L31.1699 215.467L211.579 675.346L212.674 678.139L215.467 677.043L675.346 496.635L678.139 495.539L677.043 492.746L496.634 32.8672Z" fill="#E8A11E"/>
</svg>
