<svg width="708" height="708" viewBox="0 0 708 708" fill="none" xmlns="http://www.w3.org/2000/svg">
<path fill-rule="evenodd" clip-rule="evenodd" d="M601 107H107V601H601V107ZM107 104H104V107V601V604H107H601H604V601V107V104H601H107ZM668.47 201.926L201.926 39.53L39.5301 506.074L506.074 668.47L668.47 201.926ZM202.912 36.6968L200.079 35.7105L199.092 38.5438L36.6968 505.088L35.7106 507.921L38.5439 508.908L505.088 671.303L507.922 672.289L508.908 669.456L671.303 202.912L672.289 200.079L669.456 199.092L202.912 36.6968ZM703.311 353.751L353.751 4.68934L4.68942 354.249L354.25 703.311L703.311 353.751ZM355.87 2.56651L353.748 0.446701L351.628 2.56954L2.56659 352.13L0.44678 354.252L2.56961 356.372L352.13 705.433L354.253 707.553L356.372 705.43L705.434 355.87L707.553 353.748L705.431 351.628L355.87 2.56651ZM674.144 493.735L493.735 33.8562L33.8562 214.265L214.265 674.144L674.144 493.735ZM496.528 32.7606L495.432 29.9678L492.64 31.0634L32.7606 211.472L29.9678 212.568L31.0634 215.36L211.472 675.239L212.568 678.032L215.36 676.937L675.24 496.528L678.032 495.432L676.937 492.64L496.528 32.7606Z" fill="#54ABAF"/>
</svg>
