<svg width="708" height="708" viewBox="0 0 708 708" fill="none" xmlns="http://www.w3.org/2000/svg">
<path fill-rule="evenodd" clip-rule="evenodd" d="M600.66 106.66H106.66V600.66H600.66V106.66ZM106.66 103.66H103.66V106.66V600.66V603.66H106.66H600.66H603.66V600.66V106.66V103.66H600.66H106.66ZM668.13 201.586L201.585 39.19L39.1897 505.734L505.734 668.13L668.13 201.586ZM202.571 36.3567L199.738 35.3705L198.752 38.2038L36.3565 504.748L35.3703 507.581L38.2035 508.568L504.748 670.963L507.581 671.949L508.567 669.116L670.963 202.572L671.949 199.738L669.116 198.752L202.571 36.3567ZM702.97 353.411L353.41 4.34933L4.34909 353.909L353.909 702.971L702.97 353.411ZM355.53 2.22649L353.407 0.106689L351.287 2.22952L2.22625 351.79L0.106448 353.912L2.22928 356.032L351.789 705.093L353.912 707.213L356.032 705.09L705.093 355.53L707.213 353.408L705.09 351.288L355.53 2.22649ZM673.804 493.395L493.395 33.5161L33.5159 213.925L213.925 673.804L673.804 493.395ZM496.188 32.4205L495.092 29.6278L492.299 30.7234L32.4203 211.132L29.6275 212.228L30.7231 215.02L211.132 674.899L212.227 677.692L215.02 676.597L674.899 496.188L677.692 495.092L676.596 492.3L496.188 32.4205Z" fill="#DD8FA9"/>
</svg>
