<svg width="708" height="708" viewBox="0 0 708 708" fill="none" xmlns="http://www.w3.org/2000/svg">
<path fill-rule="evenodd" clip-rule="evenodd" d="M601.213 107.213H107.213V601.213H601.213V107.213ZM107.213 104.213H104.213V107.213V601.213V604.213H107.213H601.213H604.213V601.213V107.213V104.213H601.213H107.213ZM668.683 202.139L202.138 39.7432L39.743 506.288L506.287 668.683L668.683 202.139ZM203.125 36.91L200.291 35.9238L199.305 38.757L36.9097 505.301L35.9235 508.135L38.7567 509.121L505.301 671.516L508.134 672.503L509.121 669.669L671.516 203.125L672.502 200.292L669.669 199.306L203.125 36.91ZM703.524 353.964L353.964 4.90255L4.90231 354.463L354.462 703.524L703.524 353.964ZM356.083 2.77972L353.961 0.659912L351.841 2.78275L2.77947 352.343L0.659668 354.466L2.7825 356.585L352.343 705.647L354.465 707.767L356.585 705.644L705.646 356.084L707.766 353.961L705.643 351.841L356.083 2.77972ZM674.357 493.948L493.948 34.0694L34.0691 214.478L214.478 674.357L674.357 493.948ZM496.741 32.9738L495.645 30.181L492.853 31.2766L32.9735 211.685L30.1807 212.781L31.2763 215.574L211.685 675.453L212.781 678.245L215.573 677.15L675.452 496.741L678.245 495.646L677.15 492.853L496.741 32.9738Z" fill="#17A750"/>
</svg>
