<svg width="41" height="41" viewBox="0 0 41 41" fill="none" xmlns="http://www.w3.org/2000/svg">
<path d="M20.5 3.41667C11.0641 3.41667 3.41667 11.0641 3.41667 20.5C3.41667 29.9359 11.0641 37.5833 20.5 37.5833C29.9359 37.5833 37.5833 29.9359 37.5833 20.5C37.5833 11.0641 29.9359 3.41667 20.5 3.41667ZM20.5 6.83333C28.034 6.83333 34.1667 12.966 34.1667 20.5C34.1667 21.3008 34.0866 22.0882 33.9531 22.849C33.5327 22.7555 32.9121 22.6421 32.1914 22.6354C31.6576 22.6287 30.9902 22.7155 30.4297 22.7956C30.6232 22.2017 30.75 21.5477 30.75 20.8737C30.75 19.2321 29.9492 17.7039 28.668 16.4427C29.0217 15.1281 29.3687 12.8726 28.4544 11.9583C25.7518 11.9583 24.257 13.8869 24.1836 13.987C23.3495 13.7868 22.4886 13.6667 21.5677 13.6667C20.3866 13.6667 19.2588 13.8802 18.2044 14.2005L18.5247 13.9336C18.5247 13.9336 17.0233 11.8516 14.2539 11.8516C13.2863 12.8258 13.7267 15.2949 14.0938 16.5495C12.7858 17.7974 11.9583 19.2721 11.9583 20.8737C11.9583 21.4342 12.0918 21.9681 12.2253 22.4753C11.7515 22.4219 10.0431 22.2617 9.34245 22.2617C8.72185 22.2617 7.76091 22.4085 6.99349 22.582C6.88672 21.9014 6.83334 21.2074 6.83334 20.5C6.83334 12.966 12.966 6.83333 20.5 6.83333ZM9.34245 22.6888C10.0164 22.6888 12.0651 22.929 12.332 22.9557C12.3654 23.0492 12.3988 23.1359 12.4388 23.2227C11.7048 23.1559 10.2834 23.0558 9.34245 23.1693C8.71518 23.2427 7.91439 23.4696 7.20704 23.6497C7.15365 23.4362 7.08692 23.2293 7.04688 23.0091C7.79428 22.849 8.77523 22.6888 9.34245 22.6888ZM32.1914 23.0625C32.8721 23.0692 33.4927 23.1826 33.8997 23.276C33.8797 23.3895 33.8197 23.4829 33.793 23.5964C33.3592 23.4963 32.6452 23.3494 31.8177 23.3294C31.4173 23.3228 30.7767 23.3428 30.2162 23.3828C30.2428 23.3294 30.2495 23.276 30.2695 23.2227C30.8501 23.1426 31.5908 23.0558 32.1914 23.0625ZM10.4102 23.543C11.3711 23.5496 12.272 23.6164 12.6523 23.6497C13.5466 25.318 15.355 26.5526 18.151 27.0664C17.4637 27.4468 16.8498 27.9806 16.3893 28.6146C15.9889 28.6479 15.5685 28.668 15.1615 28.668C13.9736 28.668 13.2329 27.6069 12.599 26.6927C11.9583 25.7785 11.1709 25.6784 10.7305 25.625C10.2834 25.5716 10.1299 25.8252 10.3568 25.9987C11.658 26.9997 12.1252 28.1875 12.6523 29.2552C13.1261 30.2161 14.1204 30.75 15.2148 30.75H15.4284C15.395 30.9368 15.375 31.1104 15.375 31.2839V33.1523C11.4312 31.5575 8.42823 28.1875 7.31381 24.0234C8.01449 23.8499 8.80193 23.6698 9.39584 23.5964C9.66944 23.563 10.0164 23.5363 10.4102 23.543ZM31.8177 23.7565C32.5851 23.7765 33.2658 23.9233 33.6862 24.0234C32.7453 27.5602 30.423 30.5031 27.3333 32.2982V31.2839C27.3333 29.8291 26.1856 27.9606 24.5573 27.0664C27.2599 26.5726 29.0217 25.3914 29.9492 23.8099C30.5965 23.7632 31.3573 23.7432 31.8177 23.7565ZM21.3542 30.75C21.8213 30.75 22.2083 31.137 22.2083 31.6042V34.0599C21.6478 34.1333 21.0806 34.1667 20.5 34.1667V31.6042C20.5 31.137 20.8871 30.75 21.3542 30.75ZM17.9375 32.4583C18.4046 32.4583 18.7917 32.8454 18.7917 33.3125V34.0599C18.2178 33.9865 17.6372 33.8797 17.0833 33.7396V33.3125C17.0833 32.8454 17.4704 32.4583 17.9375 32.4583ZM24.7708 32.4583C25.1846 32.4583 25.5449 32.7586 25.625 33.1523C25.0711 33.3792 24.5039 33.5861 23.9167 33.7396V33.3125C23.9167 32.8454 24.3037 32.4583 24.7708 32.4583Z" fill="white"/>
</svg>
