<svg width="41" height="41" viewBox="0 0 41 41" fill="none" xmlns="http://www.w3.org/2000/svg">
<path d="M20.5 0C9.17695 0 0 9.17695 0 20.5C0 31.823 9.17695 41 20.5 41C31.823 41 41 31.823 41 20.5C41 9.17695 31.823 0 20.5 0ZM20.5 4.1C29.5408 4.1 36.9 11.4592 36.9 20.5C36.9 21.4609 36.8039 22.4059 36.6437 23.3188C36.1393 23.2066 35.3945 23.0705 34.5297 23.0625C33.8891 23.0545 33.0883 23.1586 32.4156 23.2547C32.6479 22.542 32.8 21.7572 32.8 20.9484C32.8 18.9785 31.8391 17.1447 30.3016 15.6312C30.726 14.0537 31.1424 11.3471 30.0453 10.25C26.8021 10.25 25.0084 12.5643 24.9203 12.6844C23.9193 12.4441 22.8863 12.3 21.7812 12.3C20.3639 12.3 19.0105 12.5562 17.7453 12.9406L18.1297 12.6203C18.1297 12.6203 16.3279 10.1219 13.0047 10.1219C11.8436 11.291 12.3721 14.2539 12.8125 15.7594C11.243 17.2568 10.25 19.0266 10.25 20.9484C10.25 21.6211 10.4102 22.2617 10.5703 22.8703C10.0018 22.8062 7.95176 22.6141 7.11094 22.6141C6.36621 22.6141 5.21309 22.7902 4.29219 22.9984C4.16406 22.1816 4.1 21.3488 4.1 20.5C4.1 11.4592 11.4592 4.1 20.5 4.1ZM7.11094 23.1266C7.91973 23.1266 10.3781 23.4148 10.6984 23.4469C10.7385 23.559 10.7785 23.6631 10.8266 23.7672C9.9457 23.6871 8.24004 23.567 7.11094 23.7031C6.3582 23.7912 5.39727 24.0635 4.54844 24.2797C4.48438 24.0234 4.4043 23.7752 4.35625 23.5109C5.25312 23.3188 6.43027 23.1266 7.11094 23.1266ZM34.5297 23.575C35.3465 23.583 36.0912 23.7191 36.5797 23.8312C36.5557 23.9674 36.4836 24.0795 36.4516 24.2156C35.9311 24.0955 35.0742 23.9193 34.0812 23.8953C33.6008 23.8873 32.832 23.9113 32.1594 23.9594C32.1914 23.8953 32.1994 23.8312 32.2234 23.7672C32.9201 23.6711 33.809 23.567 34.5297 23.575ZM8.39219 24.1516C9.54531 24.1596 10.6264 24.2396 11.0828 24.2797C12.1559 26.2816 14.326 27.7631 17.6812 28.3797C16.8564 28.8361 16.1197 29.4768 15.5672 30.2375C15.0867 30.2775 14.5822 30.3016 14.0938 30.3016C12.6684 30.3016 11.7795 29.0283 11.0188 27.9312C10.25 26.8342 9.30508 26.7141 8.77656 26.65C8.24004 26.5859 8.05586 26.8902 8.32812 27.0984C9.88965 28.2996 10.4502 29.725 11.0828 31.0062C11.6514 32.1594 12.8445 32.8 14.1578 32.8H14.4141C14.374 33.0242 14.35 33.2324 14.35 33.4406V35.6828C9.61738 33.7689 6.01387 29.725 4.67656 24.7281C5.51738 24.5199 6.46231 24.3037 7.175 24.2156C7.50332 24.1756 7.91973 24.1436 8.39219 24.1516ZM34.0812 24.4078C35.0021 24.4318 35.8189 24.608 36.3234 24.7281C35.1943 28.9723 32.4076 32.5037 28.7 34.6578V33.4406C28.7 31.6949 27.3227 29.4527 25.3687 28.3797C28.6119 27.7871 30.726 26.3697 31.8391 24.4719C32.6158 24.4158 33.5287 24.3918 34.0812 24.4078ZM21.525 32.8C22.0855 32.8 22.55 33.2645 22.55 33.825V36.7719C21.8773 36.86 21.1967 36.9 20.5 36.9V33.825C20.5 33.2645 20.9645 32.8 21.525 32.8ZM17.425 34.85C17.9855 34.85 18.45 35.3145 18.45 35.875V36.7719C17.7613 36.6838 17.0646 36.5557 16.4 36.3875V35.875C16.4 35.3145 16.8645 34.85 17.425 34.85ZM25.625 34.85C26.1215 34.85 26.5539 35.2104 26.65 35.6828C25.9853 35.9551 25.3047 36.2033 24.6 36.3875V35.875C24.6 35.3145 25.0645 34.85 25.625 34.85Z" fill="#EEAB52"/>
</svg>
