<svg width="32" height="35" viewBox="0 0 32 35" fill="none" xmlns="http://www.w3.org/2000/svg">
<g opacity="0.4">
<circle cx="9.99998" cy="15" r="5" fill="#00FF66"/>
<path fill-rule="evenodd" clip-rule="evenodd" d="M4.99998 8.5C4.99998 8.5 4.83331 4.33333 4.99998 2.5C5.03283 0.5154 5.82154 0.000366887 8.49998 0H22L32 10.5V31.2357C31.8127 33.6887 30.9552 34.4977 27.5 34.5H23.5V27.5C23.4746 26.6347 22.4771 21.7221 16 21.5C23 14.5 14.5 2 4.99998 8.5ZM20 2.5L29.5 12H20V2.5Z" fill="#00FF66"/>
<path d="M0 28C4.5 22.4999 15.5 23 20 28V35H0V28Z" fill="#00FF66"/>
</g>
</svg>
